# xmcd
#
# Track frame offsets: 
#        150
#        17717
#        37411
#        54511
#        77992
#        98021
#        119136
#        142741
#        165447
#        180651
#        198990
#        216343
#        239469
#        257884
#        274969
#
# Disc length: 3788 seconds
#
# Revision: 17
# Processed by: cddbd v1.5.2PL0 Copyright (c) Steve Scherf et al.
# Submitted via: ExactAudioCopyFreeDBPlugin 1.0
#
DISCID=de0eca0f
DTITLE=Schandmaul - Wie Pech and Schwefel
DYEAR=2004
DGENRE=Rock
TTITLE0=Leb!
TTITLE1=Drachentöter
TTITLE2=Tyrann
TTITLE3=Kalte Spuren
TTITLE4=Geisterschiff
TTITLE5=Das Tuch
TTITLE6=Stein der Weisen
TTITLE7=Der Sumpf
TTITLE8=Das Duell
TTITLE9=Die Flucht
TTITLE10=Der Schatz
TTITLE11=Reich der Träume
TTITLE12=Klagelied
TTITLE13=Verbotener Kuss
TTITLE14=Folk You
EXTD=
EXTT0=
EXTT1=
EXTT2=
EXTT3=
EXTT4=
EXTT5=
EXTT6=
EXTT7=
EXTT8=
EXTT9=
EXTT10=
EXTT11=
EXTT12=
EXTT13=
EXTT14=
PLAYORDER=
